<svg width="20" height="20" viewBox="0 0 20 20" fill="none" xmlns="http://www.w3.org/2000/svg">
<rect width="20" height="20" rx="3" fill="#EC751E"/>
<path d="M15.9157 5.43222L15.2695 4.93266C15.1765 4.86078 15.0589 4.82866 14.9422 4.84332C14.8256 4.85798 14.7196 4.91823 14.6473 5.01088L8.58684 12.7922L5.63306 9.85266C5.54972 9.76934 5.43669 9.72253 5.31884 9.72253C5.20099 9.72253 5.08796 9.76934 5.00462 9.85266L4.41528 10.4438C4.33196 10.5271 4.28516 10.6401 4.28516 10.758C4.28516 10.8758 4.33196 10.9889 4.41528 11.0722L8.38239 15.0278C8.427 15.0726 8.48065 15.1074 8.53976 15.1298C8.59887 15.1522 8.66209 15.1618 8.72519 15.1578C8.78828 15.1538 8.84981 15.1365 8.90566 15.1068C8.96151 15.0772 9.0104 15.036 9.04906 14.986L15.9931 6.05622C16.065 5.96334 16.0973 5.84575 16.0828 5.72914C16.0683 5.61254 16.0083 5.50642 15.9157 5.43399V5.43222Z" fill="white"/>
</svg>
