<svg width="18" height="18" viewBox="0 0 18 18" fill="none" xmlns="http://www.w3.org/2000/svg">
<g id="Decorative_icon" clip-path="url(#clip0_1076_5307)">
<g id="Icon">
<g id="Group 15">
<path id="Path 50" d="M17 3H14.5V1.5C14.5 1.36739 14.4473 1.24021 14.3536 1.14645C14.2598 1.05268 14.1326 1 14 1H13C12.8674 1 12.7402 1.05268 12.6464 1.14645C12.5527 1.24021 12.5 1.36739 12.5 1.5V3H5.5V1.5C5.5 1.36739 5.44732 1.24021 5.35355 1.14645C5.25979 1.05268 5.13261 1 5 1H4C3.86739 1 3.74021 1.05268 3.64645 1.14645C3.55268 1.24021 3.5 1.36739 3.5 1.5V3H1C0.867392 3 0.740215 3.05268 0.646447 3.14645C0.552678 3.24021 0.5 3.36739 0.5 3.5L0.5 16.5C0.5 16.6326 0.552678 16.7598 0.646447 16.8536C0.740215 16.9473 0.867392 17 1 17H17C17.1326 17 17.2598 16.9473 17.3536 16.8536C17.4473 16.7598 17.5 16.6326 17.5 16.5V3.5C17.5 3.36739 17.4473 3.24021 17.3536 3.14645C17.2598 3.05268 17.1326 3 17 3ZM16.5 16H1.5V4H3.5V4.5C3.5 4.63261 3.55268 4.75979 3.64645 4.85355C3.74021 4.94732 3.86739 5 4 5H5C5.13261 5 5.25979 4.94732 5.35355 4.85355C5.44732 4.75979 5.5 4.63261 5.5 4.5V4H12.5V4.5C12.5 4.63261 12.5527 4.75979 12.6464 4.85355C12.7402 4.94732 12.8674 5 13 5H14C14.1326 5 14.2598 4.94732 14.3536 4.85355C14.4473 4.75979 14.5 4.63261 14.5 4.5V4H16.5V16Z" fill="#BE5509"/>
<path id="Rectangle 35" d="M5.5 6H3.5V8H5.5V6Z" fill="#BE5509"/>
<path id="Rectangle 36" d="M8.5 6H6.5V8H8.5V6Z" fill="#BE5509"/>
<path id="Rectangle 37" d="M11.5 6H9.5V8H11.5V6Z" fill="#BE5509"/>
<path id="Rectangle 38" d="M14.5 6H12.5V8H14.5V6Z" fill="#BE5509"/>
<path id="Rectangle 39" d="M5.5 9H3.5V11H5.5V9Z" fill="#BE5509"/>
<path id="Rectangle 40" d="M8.5 9H6.5V11H8.5V9Z" fill="#BE5509"/>
<path id="Rectangle 41" d="M11.5 9H9.5V11H11.5V9Z" fill="#BE5509"/>
<path id="Rectangle 42" d="M14.5 9H12.5V11H14.5V9Z" fill="#BE5509"/>
<path id="Rectangle 43" d="M5.5 12H3.5V14H5.5V12Z" fill="#BE5509"/>
<path id="Rectangle 44" d="M8.5 12H6.5V14H8.5V12Z" fill="#BE5509"/>
<path id="Rectangle 45" d="M11.5 12H9.5V14H11.5V12Z" fill="#BE5509"/>
<path id="Rectangle 46" d="M14.5 12H12.5V14H14.5V12Z" fill="#BE5509"/>
</g>
</g>
</g>
<defs>
<clipPath id="clip0_1076_5307">
<rect width="18" height="18" fill="white"/>
</clipPath>
</defs>
</svg>
