<svg width="18" height="18" viewBox="0 0 18 18" fill="none" xmlns="http://www.w3.org/2000/svg">
<g clip-path="url(#clip0_1076_5375)">
<path d="M8.5643 1.28934L0.200297 16.2563C0.157769 16.3324 0.135861 16.4183 0.136744 16.5054C0.137628 16.5926 0.161273 16.678 0.205335 16.7531C0.249397 16.8283 0.312345 16.8907 0.38794 16.9341C0.463534 16.9774 0.549149 17.0003 0.636297 17.0003H17.3643C17.4514 17.0003 17.5371 16.9774 17.6127 16.9341C17.6882 16.8907 17.7512 16.8283 17.7953 16.7531C17.8393 16.678 17.863 16.5926 17.8638 16.5054C17.8647 16.4183 17.8428 16.3324 17.8003 16.2563L9.4363 1.28934C9.39291 1.21168 9.32958 1.14699 9.25285 1.10197C9.17612 1.05694 9.08876 1.0332 8.9998 1.0332C8.91083 1.0332 8.82348 1.05694 8.74675 1.10197C8.67001 1.14699 8.60669 1.21168 8.5633 1.28934H8.5643ZM10.0003 14.7503C10.0003 14.8166 9.97396 14.8802 9.92707 14.9271C9.88019 14.974 9.8166 15.0003 9.7503 15.0003H8.2503C8.18399 15.0003 8.1204 14.974 8.07352 14.9271C8.02664 14.8802 8.0003 14.8166 8.0003 14.7503V13.2503C8.0003 13.184 8.02664 13.1205 8.07352 13.0736C8.1204 13.0267 8.18399 13.0003 8.2503 13.0003H9.7503C9.8166 13.0003 9.88019 13.0267 9.92707 13.0736C9.97396 13.1205 10.0003 13.184 10.0003 13.2503V14.7503ZM10.0003 11.7503C10.0003 11.8166 9.97396 11.8802 9.92707 11.9271C9.88019 11.974 9.8166 12.0003 9.7503 12.0003H8.2503C8.18399 12.0003 8.1204 11.974 8.07352 11.9271C8.02664 11.8802 8.0003 11.8166 8.0003 11.7503V5.75034C8.0003 5.68404 8.02664 5.62045 8.07352 5.57357C8.1204 5.52668 8.18399 5.50034 8.2503 5.50034H9.7503C9.8166 5.50034 9.88019 5.52668 9.92707 5.57357C9.97396 5.62045 10.0003 5.68404 10.0003 5.75034V11.7503Z" fill="#EC3333"/>
</g>
<defs>
<clipPath id="clip0_1076_5375">
<rect width="18" height="18" fill="white"/>
</clipPath>
</defs>
</svg>
